<?xml version="1.0" encoding="utf-8" standalone="no"?>
<!DOCTYPE svg PUBLIC "-//W3C//DTD SVG 20010904//EN" "http://www.w3.org/TR/2001/REC-SVG-20010904/DTD/svg10.dtd"[]>
<svg version="1.0" xmlns="http://www.w3.org/2000/svg" width="238" height="155" viewBox="0 50 238 155" preserveAspectRatio="xMidYMid meet">
  <g transform="translate(0.000000,250.000000) scale(0.100000,-0.100000)" fill="#000000" stroke="none">
    <path d="M490 1830 c-19 -5 -46 -22 -60 -38 -30 -36 -49 -46 -120 -61 -89 -20 -110 -31 -110 -57 0 -45 62 -86 154 -103 94 -17 126 -49 126 -123 l0 -31 53 7 c28 3 67 9 85 12 24 5 32 3 32 -9 0 -10 -20 -18 -67 -27 -38 -6 -75 -14 -83 -16 -22 -6 -54 -187 -45 -251 7 -44 14 -55 101 -139 l94 -90 -1 -50 c-1 -75 -20 -117 -57 -130 -41 -13 -56 -29 -49 -48 5 -13 24 -16 95 -16 98 0 112 7 112 56 0 33 37 164 46 164 40 0 187 43 291 86 132 54 132 54 240 54 127 0 165 -9 230 -54 68 -47 96 -91 89 -140 -9 -54 -33 -96 -55 -96 -35 0 -51 -12 -51 -37 0 -23 2 -24 68 -21 l67 3 12 48 c12 50 52 125 76 145 21 18 38 -7 39 -60 1 -61 -15 -86 -54 -90 -35 -3 -51 -33 -26 -49 16 -11 109 -11 124 -1 6 4 13 28 16 53 3 26 19 76 37 111 38 78 39 105 8 117 -70 27 -117 107 -117 200 0 40 2 43 23 36 132 -42 178 -42 267 -4 90 39 179 166 168 241 -2 19 -11 10 -50 -49 -56 -85 -113 -124 -193 -131 -44 -4 -69 2 -155 37 -56 22 -119 41 -139 41 -20 0 -92 12 -161 27 -130 28 -288 35 -520 23 -100 -5 -135 5 -187 52 -20 19 -20 22 -6 56 21 49 10 90 -41 160 -24 32 -47 73 -51 90 -17 81 -138 129 -255 102z m-13 -66 c-3 -3 -12 -4 -19 -1 -8 3 -5 6 6 6 11 1 17 -2 13 -5z" />
  </g>
</svg>