<?xml version="1.0" encoding="utf-8" standalone="no"?>
<!DOCTYPE svg PUBLIC "-//W3C//DTD SVG 20010904//EN" "http://www.w3.org/TR/2001/REC-SVG-20010904/DTD/svg10.dtd"[]>
<svg version="1.0" xmlns="http://www.w3.org/2000/svg" width="640" height="520" viewBox="80 128 640 520" preserveAspectRatio="xMidYMid meet">
  <g transform="translate(0.000000,800.000000) scale(0.100000,-0.100000)" fill="#000000" stroke="none">
    <path d="M4209 5850 c-41 -12 -76 -39 -97 -73 -11 -20 -31 -36 -52 -42 -20 -6 -43 -23 -56 -41 -44 -66 -84 -250 -84 -382 1 -123 58 -290 130 -380 112 -140 273 -93 339 101 29 84 41 206 41 411 -1 247 -10 329 -41 363 -44 47 -113 64 -180 43z m105 -435 c1 -185 -1 -205 -23 -270 -41 -121 -78 -173 -115 -159 -19 7 -52 86 -72 171 -17 74 -15 236 5 304 11 35 11 35 66 35 69 -1 87 18 105 109 11 56 13 58 23 35 7 -15 11 -105 11 -225z" />
    <path d="M3659 5839 c-46 -17 -53 -46 -40 -161 6 -57 18 -177 26 -268 8 -91 18 -185 21 -210 l7 -45 -23 20 c-60 53 -277 379 -317 475 -20 50 -25 55 -50 52 -44 -5 -78 -34 -81 -73 -2 -18 3 -74 12 -124 9 -49 21 -130 26 -180 6 -49 20 -151 30 -226 37 -262 45 -279 129 -279 70 0 85 17 76 89 -3 31 -11 74 -17 96 -15 56 -86 409 -83 413 1 1 71 -125 155 -280 84 -156 159 -293 167 -305 18 -30 57 -30 128 1 66 30 65 23 30 221 -41 234 -63 371 -91 570 -14 105 -30 198 -36 208 -10 19 -29 20 -69 6z" />
    <path d="M4620 5370 c-11 -11 -20 -29 -20 -40 0 -26 34 -60 60 -60 26 0 60 34 60 60 0 26 -34 60 -60 60 -11 0 -29 -9 -40 -20z" />
    <path d="M2916 5309 c-52 -41 -20 -129 48 -129 34 0 76 41 76 75 0 33 -41 75 -73 75 -13 0 -36 -9 -51 -21z" />
    <path d="M5210 4931 c-87 -15 -134 -33 -167 -66 -31 -31 -33 -38 -33 -97 0 -87 35 -156 141 -279 95 -110 119 -146 119 -176 0 -35 -36 -65 -73 -61 -26 2 -36 10 -51 42 -16 32 -17 44 -8 69 15 40 9 47 -44 47 -68 0 -84 -12 -84 -64 0 -94 77 -186 155 -186 77 0 198 95 211 166 8 44 -20 100 -92 184 -72 84 -152 205 -165 251 -21 69 27 106 94 74 45 -21 62 -60 53 -125 -6 -48 -5 -51 19 -60 48 -18 93 -12 111 15 22 34 17 226 -7 250 -19 19 -111 27 -179 16z" />
    <path d="M2597 4766 c-65 -27 -90 -42 -164 -98 -97 -74 -110 -122 -74 -273 39 -159 105 -314 162 -379 58 -66 138 -69 211 -8 59 50 96 170 68 221 -12 24 -64 45 -93 37 -38 -9 -53 -49 -39 -102 19 -69 16 -104 -8 -104 -26 0 -60 56 -109 178 -73 183 -90 309 -53 381 33 65 60 49 74 -45 13 -89 32 -134 56 -134 30 0 85 42 105 80 34 65 7 233 -41 259 -27 14 -28 14 -95 -13z" />
    <path d="M4460 4749 c-14 -6 -44 -29 -67 -52 -34 -32 -46 -38 -55 -29 -15 15 -50 15 -84 0 l-27 -13 6 -185 c9 -234 24 -410 38 -427 6 -7 24 -13 40 -13 34 0 45 28 36 91 -3 21 -2 39 2 39 4 0 27 -20 51 -45 56 -57 112 -80 170 -68 24 4 45 14 47 20 5 14 -99 84 -195 132 -34 17 -60 36 -57 41 3 5 32 23 63 40 76 40 161 115 178 157 32 75 -2 221 -66 285 -41 41 -43 42 -80 27z m-10 -134 c6 -8 18 -35 25 -60 20 -66 4 -109 -60 -157 -27 -21 -56 -38 -62 -38 -10 0 -13 28 -13 109 0 94 3 112 21 135 23 29 69 35 89 11z" />
    <path d="M4820 4736 c-41 -13 -93 -27 -115 -32 -36 -8 -40 -13 -46 -45 -3 -20 -2 -147 2 -284 7 -197 11 -251 23 -263 17 -17 78 -28 211 -38 l94 -7 11 29 c6 15 10 44 8 63 l-3 36 -117 -2 c-132 -2 -133 -1 -122 73 7 46 3 43 96 59 35 5 54 27 42 46 -7 11 -60 12 -99 0 l-30 -8 3 116 c2 64 5 122 7 129 3 7 24 12 57 13 110 1 138 25 123 105 -5 30 -9 34 -38 34 -18 -1 -66 -11 -107 -24z" />
    <path d="M3644 4703 c-29 -6 -37 -27 -79 -205 -19 -84 -43 -183 -51 -220 -9 -37 -22 -75 -29 -84 -11 -15 -14 -12 -29 32 -9 27 -32 116 -51 198 -19 82 -39 154 -44 159 -6 6 -28 3 -60 -9 -54 -19 -62 -28 -35 -38 19 -7 17 -30 -15 -221 -26 -146 -27 -261 -5 -308 21 -44 48 -61 75 -47 17 10 19 17 12 43 -9 37 -8 162 2 215 l7 37 28 -74 c32 -87 66 -124 114 -119 40 4 54 32 95 203 44 178 52 203 46 145 -3 -25 -8 -128 -11 -230 -6 -166 -5 -187 10 -199 13 -11 24 -12 55 -2 21 6 43 17 49 24 6 7 13 143 17 342 7 304 6 332 -9 348 -17 16 -45 19 -92 10z" />
    <path d="M4001 4675 c-21 -19 -44 -49 -51 -65 -14 -33 -35 -42 -25 -10 3 10 1 37 -5 60 -10 35 -14 40 -41 40 -43 0 -88 -26 -95 -55 -13 -52 54 -533 78 -562 12 -15 56 -17 77 -4 11 7 12 27 7 100 l-8 91 35 0 c107 0 207 85 207 176 0 102 -82 264 -134 264 -3 0 -23 -16 -45 -35z m37 -165 c44 -88 20 -152 -59 -154 l-44 -1 -3 64 c-3 55 1 69 23 103 33 49 53 47 83 -12z" />
    <path d="M3024 4680 c-12 -5 -31 -22 -43 -39 -12 -17 -28 -31 -35 -31 -53 0 -100 -100 -118 -249 -9 -82 -9 -107 6 -171 30 -134 91 -228 160 -246 39 -9 107 27 140 74 50 72 67 156 70 347 4 217 -2 271 -38 302 -29 24 -98 31 -142 13z m93 -320 c-5 -154 -29 -250 -72 -290 -35 -32 -54 -19 -79 51 -26 76 -28 244 -3 282 14 22 22 25 46 21 23 -5 35 -1 55 19 14 15 26 35 26 46 0 11 3 27 7 37 15 40 25 -36 20 -166z" />
    <path d="M5747 4485 c-110 -28 -187 -81 -262 -180 -59 -79 -162 -180 -246 -243 -66 -50 -98 -57 -314 -72 -88 -5 -295 -21 -460 -34 -435 -36 -638 -44 -1327 -57 l-618 -11 -42 25 c-28 16 -55 45 -78 82 -103 167 -145 215 -219 248 -110 49 -217 31 -420 -70 -150 -75 -227 -136 -269 -217 -23 -44 -27 -63 -27 -136 0 -76 3 -90 29 -134 16 -27 53 -76 83 -108 30 -32 67 -80 84 -105 50 -80 38 -131 -66 -293 -78 -120 -107 -300 -67 -415 57 -165 308 -352 530 -395 85 -17 186 -9 242 20 25 12 88 52 140 88 52 36 122 83 154 105 213 144 608 223 1221 247 149 6 338 15 420 21 83 6 269 15 415 20 146 5 308 16 360 24 212 35 249 32 305 -16 26 -24 40 -48 56 -102 36 -125 93 -193 205 -250 78 -40 161 -57 271 -57 320 0 596 187 677 459 37 126 16 191 -95 291 -103 93 -134 145 -134 225 0 63 3 71 95 242 43 81 49 170 25 356 -20 158 -42 214 -103 267 -158 139 -404 216 -565 175z m-221 -518 c53 -30 114 -137 134 -234 7 -33 10 -167 8 -368 -3 -267 -5 -317 -18 -326 -24 -16 -126 -5 -150 16 -18 16 -20 30 -20 136 l0 117 -30 7 c-38 8 -70 -2 -70 -23 0 -28 -40 -176 -50 -186 -12 -12 -55 0 -76 21 -13 14 -15 29 -11 77 4 34 9 75 13 93 6 30 5 32 -30 38 -25 5 -36 13 -36 24 0 28 23 50 55 53 l30 3 46 230 c46 231 63 299 82 323 12 15 95 15 123 -1z m-285 -47 c39 -21 13 -121 -37 -140 -14 -6 -55 -10 -92 -10 -96 0 -96 -1 -89 -111 8 -121 28 -505 30 -589 l2 -65 -47 -3 c-40 -3 -49 0 -62 20 -14 23 -71 442 -82 608 -9 138 -4 130 -82 130 -82 0 -113 15 -126 58 -12 44 -5 48 113 57 72 5 338 37 444 54 5 0 17 -4 28 -9z m-904 -86 c11 -18 17 -47 17 -90 0 -35 3 -64 7 -64 3 0 12 14 19 31 7 17 39 58 69 90 73 77 96 78 149 10 68 -86 124 -271 106 -349 -25 -108 -131 -186 -270 -199 l-65 -6 3 -131 3 -131 -54 -3 c-30 -2 -59 2 -65 8 -27 27 -110 725 -93 791 5 19 20 32 54 47 68 29 99 28 120 -4z m-347 -20 c60 -24 70 -51 70 -191 0 -160 -16 -342 -36 -411 -41 -143 -113 -214 -214 -214 -80 0 -134 42 -187 146 -75 147 -69 328 15 496 34 68 41 76 81 91 25 9 54 28 66 43 41 51 132 69 205 40z m-490 -74 c30 -16 43 -84 42 -220 0 -143 -24 -306 -53 -366 -32 -66 -158 -182 -340 -311 -70 -50 -93 -52 -167 -18 -87 40 -99 105 -20 105 57 1 106 24 206 99 125 95 170 176 212 379 36 181 19 262 -58 262 -30 0 -153 -66 -193 -103 -43 -40 -45 -53 -55 -357 -4 -107 -11 -203 -16 -212 -10 -21 -73 -24 -112 -6 -33 14 -33 16 -47 331 -11 263 -7 368 16 387 18 15 123 33 152 25 16 -4 25 -15 29 -34 l6 -29 72 25 c139 48 281 67 326 43z m-864 -41 c39 -24 83 -77 113 -137 36 -70 60 -182 91 -427 16 -126 32 -251 36 -277 l6 -46 -38 -11 c-56 -16 -120 -14 -138 4 -8 8 -17 41 -21 72 -3 32 -9 83 -13 113 l-7 55 -45 0 c-45 0 -45 0 -52 -40 -4 -22 -11 -71 -15 -110 -8 -67 -9 -70 -36 -73 -16 -2 -39 4 -53 13 -23 15 -24 21 -24 110 l0 95 -29 0 c-61 0 -62 64 0 77 19 4 31 13 33 27 2 11 9 125 15 251 6 127 15 246 19 265 13 60 93 80 158 39z" />
    <path d="M5444 3552 c-23 -92 -38 -170 -35 -174 3 -4 21 -9 40 -10 39 -3 35 -22 46 193 4 81 3 149 -2 152 -5 3 -27 -70 -49 -161z" />
    <path d="M4400 3619 c-44 -56 -44 -54 -40 -159 2 -93 11 -104 76 -94 62 9 114 56 114 103 0 64 -65 201 -95 201 -8 0 -33 -23 -55 -51z" />
    <path d="M3926 3616 c-25 -65 -58 -88 -121 -84 l-50 3 -12 -45 c-20 -78 -16 -241 7 -304 12 -30 27 -60 35 -66 42 -35 98 28 141 157 21 63 27 103 31 208 3 72 1 141 -4 154 -9 22 -10 21 -27 -23z" />
    <path d="M2607 3450 c-3 -8 -8 -51 -11 -95 -3 -44 -9 -117 -12 -162 l-7 -82 27 -7 c45 -11 59 1 52 46 -3 22 -11 86 -17 142 -12 121 -24 179 -32 158z" />
  </g>
</svg>